<svg xmlns="http://www.w3.org/2000/svg" width="1400" height="1320" viewBox="0 0 1400 1320" role="img" aria-label="SatsunicGo AI architecture"><title>SatsunicGo AI</title><defs><marker id="arr" viewBox="0 0 10 10" refX="9" refY="5" markerWidth="7" markerHeight="7" orient="auto-start-reverse"><path d="M0 0L10 5L0 10Z" fill="#4269bf" /></marker><linearGradient id="brand" x1="0%" x2="100%" y1="0%" y2="100%"><stop offset="0%" stop-color="#163cff" /><stop offset="100%" stop-color="#7c3aed" /></linearGradient><filter id="card-shadow" x="-10%" y="-10%" width="120%" height="130%"><feDropShadow dx="0" dy="3" stdDeviation="4" flood-color="#111c35" flood-opacity=".06" /></filter></defs><g font-family="Arial,sans-serif"><rect width="1400" height="1330" fill="white" />
<rect x="0" y="0" width="1400" height="94" fill="#111c35" /><rect x="0" y="91" width="1400" height="3" fill="url(#brand)" /><text x="30" y="44" font-size="30" fill="#ffffff" font-weight="700">SatsunicGo AI</text>
<text x="30" y="75" font-size="18" fill="#bdcaff" font-weight="400">Ask Anything · Understand your customers</text>
<rect x="280" y="110" width="660" height="610" rx="18" fill="#edf3ff" stroke="#163cff30" />
<text x="336" y="144" font-size="21" fill="#163cff" font-weight="700">Agent runner</text>
<text x="302" y="169" font-size="14" fill="#596274" font-weight="400">Runs as the signed-in user</text>
<rect x="990" y="110" width="380" height="210" rx="18" fill="#f4efff" stroke="#7c3aed30" />
<text x="1046" y="144" font-size="21" fill="#7c3aed" font-weight="700">LLM provider layer</text>
<text x="1012" y="169" font-size="14" fill="#596274" font-weight="400">One interface for model calls</text>
<rect x="990" y="415" width="380" height="480" rx="18" fill="#edfaf7" stroke="#087f7030" />
<text x="1046" y="449" font-size="21" fill="#087f70" font-weight="700">Tools &amp; data access</text>
<text x="1012" y="474" font-size="14" fill="#596274" font-weight="400">Only the tools the user is allowed to use</text>
<rect x="30" y="210" width="205" height="110" rx="12" fill="#fff" stroke="#163cff70" stroke-width="1.4" filter="url(#card-shadow)" />
<g fill="none" stroke="#111c35" stroke-width="2"><circle cx="52" cy="237" r="6" /><path d="M42 258v-5a10 10 0 0 1 20 0v5" /></g>
<text x="71" y="246" font-size="19" fill="#111c35" font-weight="700">User</text>
<text x="48" y="282" font-size="15" fill="#596274" font-weight="400">Customer: Ask Anything</text>
<text x="48" y="305" font-size="15" fill="#596274" font-weight="400">Team member: CRM</text>
<rect x="30" y="430" width="205" height="115" rx="12" fill="#fff" stroke="#163cff70" stroke-width="1.4" filter="url(#card-shadow)" />
<text x="48" y="462" font-size="19" fill="#111c35" font-weight="700">API</text>
<text x="48" y="490" font-size="15" fill="#596274" font-weight="400">Check user and role</text>
<text x="48" y="513" font-size="15" fill="#596274" font-weight="400">Accept requests</text>
<rect x="310" y="210" width="265" height="115" rx="12" fill="#fff" stroke="#163cff70" stroke-width="1.4" filter="url(#card-shadow)" />
<text x="328" y="242" font-size="19" fill="#111c35" font-weight="700">Build context</text>
<text x="328" y="270" font-size="15" fill="#596274" font-weight="400">Question + history + relevant data</text>
<text x="328" y="293" font-size="15" fill="#596274" font-weight="400">Only data this user can access</text>
<rect x="650" y="210" width="260" height="115" rx="12" fill="#fff" stroke="#163cff70" stroke-width="1.4" filter="url(#card-shadow)" />
<text x="668" y="242" font-size="19" fill="#111c35" font-weight="700">Call the model</text>
<text x="668" y="270" font-size="14" fill="#596274" font-weight="400">Answer or request a tool</text>
<text x="668" y="293" font-size="15" fill="#596274" font-weight="400">Checks time and step limits</text>
<rect x="650" y="400" width="260" height="120" rx="12" fill="#fff8e9" stroke="#c56b1570" stroke-width="1.4" filter="url(#card-shadow)" />
<text x="668" y="432" font-size="19" fill="#111c35" font-weight="700">Permission gate</text>
<text x="668" y="460" font-size="15" fill="#596274" font-weight="400">Role allows this tool? Valid inputs?</text>
<text x="668" y="483" font-size="15" fill="#596274" font-weight="400">Writes wait for approval</text>
<rect x="650" y="590" width="260" height="95" rx="12" fill="#fff" stroke="#163cff70" stroke-width="1.4" filter="url(#card-shadow)" />
<text x="668" y="622" font-size="19" fill="#111c35" font-weight="700">Run tools</text>
<text x="668" y="650" font-size="15" fill="#596274" font-weight="400">Separate reads run together</text>
<polyline points="235,239 310,239" fill="none" stroke="#335ed3" stroke-width="2.2" marker-end="url(#arr)" />
<text x="244" y="226" font-size="13" fill="#4269bf" font-weight="600">question</text>
<polyline points="310,303 250,303 250,303 235,303" fill="none" stroke="#335ed3" stroke-width="2.2" marker-end="url(#arr)" />
<text x="244" y="290" font-size="13" fill="#4269bf" font-weight="600">reply</text>
<polyline points="132,320 132,430" fill="none" stroke="#335ed3" stroke-width="2.2" marker-end="url(#arr)" />
<text x="143" y="379" font-size="13" fill="#4269bf" font-weight="600">confirm</text>
<polyline points="235,480 442,480 442,325" fill="none" stroke="#335ed3" stroke-width="2.2" marker-end="url(#arr)" />
<text x="271" y="466" font-size="13" fill="#4269bf" font-weight="600">validated request</text>
<polyline points="575,265 650,265" fill="none" stroke="#335ed3" stroke-width="2.2" marker-end="url(#arr)" />
<text x="588" y="252" font-size="13" fill="#4269bf" font-weight="600">request</text>
<polyline points="780,325 780,400" fill="none" stroke="#335ed3" stroke-width="2.2" marker-end="url(#arr)" />
<text x="792" y="365" font-size="13" fill="#4269bf" font-weight="600">tool calls</text>
<polyline points="780,520 780,590" fill="none" stroke="#335ed3" stroke-width="2.2" marker-end="url(#arr)" />
<text x="792" y="560" font-size="13" fill="#4269bf" font-weight="600">allowed</text>
<polyline points="650,637 600,637 600,357 442,357 442,325" fill="none" stroke="#335ed3" stroke-width="2.2" marker-end="url(#arr)" />
<text x="611" y="555" font-size="13" fill="#4269bf" font-weight="600">result</text>
<rect x="1010" y="195" width="340" height="95" rx="12" fill="#fff" stroke="#7c3aed70" stroke-width="1.4" filter="url(#card-shadow)" />
<text x="1028" y="227" font-size="19" fill="#111c35" font-weight="700">Shared adapter</text>
<text x="1028" y="255" font-size="15" fill="#596274" font-weight="400">Genkit / Vertex AI</text>
<polyline points="910,245 1010,245" fill="none" stroke="#335ed3" stroke-width="2.2" marker-end="url(#arr)" />
<text x="956" y="232" font-size="13" fill="#4269bf" font-weight="600">call</text>
<polyline points="1010,279 910,279" fill="none" stroke="#335ed3" stroke-width="2.2" marker-end="url(#arr)" />
<text x="952" y="301" font-size="13" fill="#4269bf" font-weight="600">reply</text>
<rect x="1010" y="500" width="340" height="180" rx="12" fill="#fff" stroke="#087f7070" stroke-width="1.4" filter="url(#card-shadow)" />
<text x="1028" y="532" font-size="19" fill="#111c35" font-weight="700">Tool registry</text>
<text x="1028" y="560" font-size="15" fill="#596274" font-weight="400">Read: products, fees, the user’s orders</text>
<text x="1028" y="583" font-size="15" fill="#596274" font-weight="400">Draft: prepare a purchase request</text>
<text x="1028" y="606" font-size="15" fill="#596274" font-weight="400">Submit or update: needs confirmation</text>
<text x="1028" y="629" font-size="15" fill="#596274" font-weight="400">Payments / refunds: separate workflows</text>
<polyline points="910,622 1010,622" fill="none" stroke="#335ed3" stroke-width="2.2" marker-end="url(#arr)" />
<text x="952" y="608" font-size="13" fill="#4269bf" font-weight="600">run</text>
<polyline points="1010,660 910,660" fill="none" stroke="#335ed3" stroke-width="2.2" marker-end="url(#arr)" />
<text x="950" y="681" font-size="13" fill="#4269bf" font-weight="600">result</text>
<rect x="1010" y="757" width="340" height="110" rx="12" fill="#fff" stroke="#087f7070" stroke-width="1.4" filter="url(#card-shadow)" />
<text x="1028" y="789" font-size="19" fill="#111c35" font-weight="700">SatsunicGo data</text>
<text x="1028" y="817" font-size="15" fill="#596274" font-weight="400">Firestore · orders · products · CRM</text>
<text x="1028" y="840" font-size="15" fill="#596274" font-weight="400">Every access checks ownership and role</text>
<polyline points="1180,680 1180,757" fill="none" stroke="#335ed3" stroke-width="2.2" marker-end="url(#arr)" />
<text x="1193" y="721" font-size="13" fill="#4269bf" font-weight="600">check access each time</text>
<rect x="280" y="750" width="660" height="185" rx="18" fill="#f0f4fb" stroke="#44639430" />
<text x="336" y="784" font-size="21" fill="#446394" font-weight="700">Compaction</text>
<text x="302" y="809" font-size="14" fill="#596274" font-weight="400">Keep what the model needs for the next turn</text>
<rect x="310" y="829" width="185" height="80" rx="12" fill="#fff" stroke="#163cff70" stroke-width="1.4" filter="url(#card-shadow)" />
<text x="328" y="861" font-size="19" fill="#111c35" font-weight="700">Clear old results</text>
<text x="328" y="889" font-size="15" fill="#596274" font-weight="400">Keep source links</text>
<rect x="517" y="829" width="185" height="80" rx="12" fill="#fff" stroke="#163cff70" stroke-width="1.4" filter="url(#card-shadow)" />
<text x="535" y="861" font-size="19" fill="#111c35" font-weight="700">Summarize</text>
<text x="535" y="889" font-size="15" fill="#596274" font-weight="400">Keep key points</text>
<rect x="724" y="829" width="185" height="80" rx="12" fill="#fff" stroke="#163cff70" stroke-width="1.4" filter="url(#card-shadow)" />
<text x="742" y="861" font-size="19" fill="#111c35" font-weight="700">Keep active work</text>
<text x="742" y="889" font-size="14" fill="#596274" font-weight="400">Orders, drafts, pending</text>
<polyline points="442,720 442,750" fill="none" stroke="#335ed3" stroke-width="2.2" marker-end="url(#arr)" />
<text x="454" y="741" font-size="13" fill="#4269bf" font-weight="600">long history</text>
<rect x="30" y="970" width="1340" height="155" rx="18" fill="#f2f3fe" stroke="#5855b330" />
<text x="86" y="1004" font-size="21" fill="#5855b3" font-weight="700">Memory &amp; state</text>
<text x="52" y="1029" font-size="14" fill="#596274" font-weight="400">Save the conversation, current work and a record of each action</text>
<rect x="50" y="1040" width="400" height="65" rx="12" fill="#fff" stroke="#5855b370" stroke-width="1.4" filter="url(#card-shadow)" />
<text x="68" y="1072" font-size="19" fill="#111c35" font-weight="700">Conversation history</text>
<rect x="490" y="1040" width="400" height="65" rx="12" fill="#fff" stroke="#5855b370" stroke-width="1.4" filter="url(#card-shadow)" />
<text x="508" y="1072" font-size="19" fill="#111c35" font-weight="700">Preferences chosen by the user</text>
<rect x="930" y="1040" width="420" height="65" rx="12" fill="#fff" stroke="#5855b370" stroke-width="1.4" filter="url(#card-shadow)" />
<text x="948" y="1072" font-size="19" fill="#111c35" font-weight="700">Audit logs &amp; costs</text>
<polyline points="442,935 442,970" fill="none" stroke="#335ed3" stroke-width="2.2" marker-end="url(#arr)" />
<text x="454" y="958" font-size="13" fill="#4269bf" font-weight="600">save summary</text>
<rect x="30" y="1160" width="1340" height="135" rx="18" fill="#fff4eb" stroke="#b9551530" />
<text x="86" y="1194" font-size="21" fill="#b95515" font-weight="700">Customer behavior</text>
<text x="52" y="1219" font-size="14" fill="#596274" font-weight="400">Use permitted data to understand customers; runs separately from chat and payments</text>
<rect x="50" y="1229" width="265" height="48" rx="12" fill="#fff" stroke="#b9551570" stroke-width="1.4" filter="url(#card-shadow)" />
<text x="68" y="1261" font-size="19" fill="#111c35" font-weight="700">Customer activity</text>
<rect x="390" y="1229" width="265" height="48" rx="12" fill="#fff" stroke="#b9551570" stroke-width="1.4" filter="url(#card-shadow)" />
<text x="408" y="1261" font-size="19" fill="#111c35" font-weight="700">Summarize activity</text>
<rect x="730" y="1229" width="265" height="48" rx="12" fill="#fff" stroke="#b9551570" stroke-width="1.4" filter="url(#card-shadow)" />
<text x="748" y="1261" font-size="19" fill="#111c35" font-weight="700">Insights &amp; suggestions</text>
<rect x="1070" y="1229" width="280" height="48" rx="12" fill="#fff" stroke="#b9551570" stroke-width="1.4" filter="url(#card-shadow)" />
<text x="1088" y="1261" font-size="19" fill="#111c35" font-weight="700">Team review</text>
<polyline points="315,1253 390,1253" fill="none" stroke="#335ed3" stroke-width="2.2" marker-end="url(#arr)" />
<polyline points="655,1253 730,1253" fill="none" stroke="#335ed3" stroke-width="2.2" marker-end="url(#arr)" />
<polyline points="995,1253 1070,1253" fill="none" stroke="#335ed3" stroke-width="2.2" marker-end="url(#arr)" />
<rect x="31" y="222" width="4" height="86" rx="2" fill="#163cff" /><rect x="31" y="442" width="4" height="91" rx="2" fill="#163cff" /><rect x="311" y="222" width="4" height="91" rx="2" fill="#163cff" /><rect x="651" y="222" width="4" height="91" rx="2" fill="#163cff" /><rect x="651" y="412" width="4" height="96" rx="2" fill="#c56b15" /><rect x="651" y="602" width="4" height="71" rx="2" fill="#163cff" /><rect x="1011" y="207" width="4" height="71" rx="2" fill="#7c3aed" /><rect x="1011" y="512" width="4" height="156" rx="2" fill="#087f70" /><rect x="1011" y="769" width="4" height="86" rx="2" fill="#087f70" /><rect x="311" y="841" width="4" height="56" rx="2" fill="#163cff" /><rect x="518" y="841" width="4" height="56" rx="2" fill="#163cff" /><rect x="725" y="841" width="4" height="56" rx="2" fill="#163cff" /><rect x="51" y="1052" width="4" height="41" rx="2" fill="#5855b3" /><rect x="491" y="1052" width="4" height="41" rx="2" fill="#5855b3" /><rect x="931" y="1052" width="4" height="41" rx="2" fill="#5855b3" /><rect x="51" y="1241" width="4" height="24" rx="2" fill="#b95515" /><rect x="391" y="1241" width="4" height="24" rx="2" fill="#b95515" /><rect x="731" y="1241" width="4" height="24" rx="2" fill="#b95515" /><rect x="1071" y="1241" width="4" height="24" rx="2" fill="#b95515" /><rect x="300" y="127" width="26" height="24" rx="7" fill="#163cff" /><text x="306" y="144" font-size="12" font-weight="700" fill="white">01</text><rect x="1010" y="127" width="26" height="24" rx="7" fill="#7c3aed" /><text x="1016" y="144" font-size="12" font-weight="700" fill="white">02</text><rect x="1010" y="432" width="26" height="24" rx="7" fill="#087f70" /><text x="1016" y="449" font-size="12" font-weight="700" fill="white">03</text><rect x="300" y="767" width="26" height="24" rx="7" fill="#446394" /><text x="306" y="784" font-size="12" font-weight="700" fill="white">04</text><rect x="50" y="987" width="26" height="24" rx="7" fill="#5855b3" /><text x="56" y="1004" font-size="12" font-weight="700" fill="white">05</text><rect x="50" y="1177" width="26" height="24" rx="7" fill="#b95515" /><text x="56" y="1194" font-size="12" font-weight="700" fill="white">06</text><rect x="328" y="301" width="155" height="18" rx="5" fill="#eaf0ff" /><text x="336" y="314" font-size="11" font-weight="600" fill="#163cff" font-family="Arial,sans-serif">scoped context</text><rect x="668" y="301" width="169" height="18" rx="5" fill="#eaf0ff" /><text x="676" y="314" font-size="11" font-weight="600" fill="#163cff" font-family="Arial,sans-serif">structured output</text><rect x="668" y="493" width="224" height="18" rx="5" fill="#ffebc3" /><text x="676" y="506" font-size="11" font-weight="600" fill="#a85610" font-family="Arial,sans-serif">RBAC · schema validation</text><rect x="668" y="660" width="220" height="18" rx="5" fill="#eaf0ff" /><text x="676" y="673" font-size="11" font-weight="600" fill="#163cff" font-family="Arial,sans-serif">bounded concurrency</text><rect x="1028" y="269" width="220" height="18" rx="5" fill="#eee5ff" /><text x="1036" y="282" font-size="11" font-weight="600" fill="#7541b9" font-family="Arial,sans-serif">usage · cost · latency</text><rect x="310" y="535" width="265" height="137" rx="12" fill="#111c35" /><text x="328" y="561" font-size="15" font-weight="700" fill="#ffffff">Runtime controls</text><circle cx="332" cy="583" r="3" fill="#8da7ff" /><text x="344" y="588" font-size="13" fill="#cbd7fb" font-family="Arial,sans-serif">max steps · token budget</text><circle cx="332" cy="608" r="3" fill="#8da7ff" /><text x="344" y="613" font-size="13" fill="#cbd7fb" font-family="Arial,sans-serif">timeout · cancellation</text><circle cx="332" cy="633" r="3" fill="#8da7ff" /><text x="344" y="638" font-size="13" fill="#cbd7fb" font-family="Arial,sans-serif">requestId · traceId</text></g></svg>